<svg width="169" height="169" viewBox="0 0 169 169" fill="none" xmlns="http://www.w3.org/2000/svg">
<g filter="url(#filter0_d_1_3)">
<mask id="path-1-outside-1_1_3" maskUnits="userSpaceOnUse" x="11" y="40" width="145" height="61" fill="black">
<rect fill="white" x="11" y="40" width="145" height="61"/>
<path d="M26.5625 92.8438C26.1875 96.5938 24.125 98.625 20.375 98.9375C18.625 98.9375 17.0938 98.375 15.7812 97.25C14.5312 96.0625 13.9062 94.5938 13.9062 92.8438V48.5938C13.9688 46.8438 14.625 45.4062 15.875 44.2812C17.125 43.0938 18.625 42.5 20.375 42.5H59.75C65.25 42.6875 69.4062 43.9062 72.2188 46.1562C75.0312 48.3438 77.0625 50.8438 78.3125 53.6562C79.5625 56.4688 80.1875 59.3125 80.1875 62.1875C80.1875 65.1875 79.5625 68.0938 78.3125 70.9062C77.125 73.7188 75.0938 76.25 72.2188 78.5C69.4062 80.6875 65.8125 81.75 61.4375 81.6875H37.8125C36.0625 81.6875 34.5938 81.0625 33.4062 79.8125C32.1562 78.625 31.5312 77.1562 31.5312 75.4062C31.5312 73.6562 32.125 72.1875 33.3125 71C34.5625 69.75 36.0625 69.125 37.8125 69.125H62C63.1875 69.125 64.1562 68.75 64.9062 68C65.7188 67.1875 66.3125 66.2812 66.6875 65.2812C67.0625 64.2188 67.25 63.1562 67.25 62.0938C67.25 61.0938 67.0625 60.0938 66.6875 59.0938C66.3125 58.0312 65.7188 57.125 64.9062 56.375C64.1562 55.5625 63.1875 55.125 62 55.0625H29C27.375 55.125 26.5625 55.9375 26.5625 57.5V92.8438ZM90.7812 91.3438C90.7812 89.5938 91.4062 88.125 92.6562 86.9375C93.8438 85.6875 95.3125 85.0625 97.0625 85.0625H135.5C136.688 85 137.656 84.7188 138.406 84.2188C139.219 83.7188 139.812 83.1562 140.188 82.5312C140.562 81.9062 140.75 81.25 140.75 80.5625C140.75 79.875 140.562 79.2188 140.188 78.5938C139.812 77.9688 139.219 77.4062 138.406 76.9062C137.656 76.4062 136.688 76.125 135.5 76.0625H108.875C104.5 75.9375 100.875 74.9375 98 73.0625C95.1875 71.125 93.1562 68.9375 91.9062 66.5C90.7188 64 90.125 61.4688 90.125 58.9062V52.4375C90.1875 49.25 91.125 46.8125 92.9375 45.125C94.8125 43.375 97.5 42.5 101 42.5H146.938C148.688 42.5 150.156 43.125 151.344 44.375C152.594 45.5625 153.219 47.0312 153.219 48.7812C153.219 50.5312 152.594 52 151.344 53.1875C150.156 54.4375 148.688 55.0625 146.938 55.0625H106.062C104.875 55 104.062 55.1875 103.625 55.625C103.25 56.0625 103.062 56.6875 103.062 57.5V58.9062C103.062 59.3438 103.25 59.9688 103.625 60.7812C104 61.5312 104.562 62.1562 105.312 62.6562C106.125 63.1562 107.125 63.4375 108.312 63.5H134.938C139.312 63.5625 142.906 64.5625 145.719 66.5C148.594 68.375 150.625 70.5625 151.812 73.0625C153.062 75.5 153.688 78 153.688 80.5625C153.688 83 153.062 85.4688 151.812 87.9688C150.562 90.4062 148.531 92.5938 145.719 94.5312C142.906 96.4062 139.312 97.4062 134.938 97.5312H134.375C134 97.5938 133.625 97.625 133.25 97.625H97.0625C95.3125 97.625 93.8125 97.0312 92.5625 95.8438C91.375 94.5938 90.7812 93.0938 90.7812 91.3438Z"/>
</mask>
<path d="M26.5625 92.8438C26.1875 96.5938 24.125 98.625 20.375 98.9375C18.625 98.9375 17.0938 98.375 15.7812 97.25C14.5312 96.0625 13.9062 94.5938 13.9062 92.8438V48.5938C13.9688 46.8438 14.625 45.4062 15.875 44.2812C17.125 43.0938 18.625 42.5 20.375 42.5H59.75C65.25 42.6875 69.4062 43.9062 72.2188 46.1562C75.0312 48.3438 77.0625 50.8438 78.3125 53.6562C79.5625 56.4688 80.1875 59.3125 80.1875 62.1875C80.1875 65.1875 79.5625 68.0938 78.3125 70.9062C77.125 73.7188 75.0938 76.25 72.2188 78.5C69.4062 80.6875 65.8125 81.75 61.4375 81.6875H37.8125C36.0625 81.6875 34.5938 81.0625 33.4062 79.8125C32.1562 78.625 31.5312 77.1562 31.5312 75.4062C31.5312 73.6562 32.125 72.1875 33.3125 71C34.5625 69.75 36.0625 69.125 37.8125 69.125H62C63.1875 69.125 64.1562 68.75 64.9062 68C65.7188 67.1875 66.3125 66.2812 66.6875 65.2812C67.0625 64.2188 67.25 63.1562 67.25 62.0938C67.25 61.0938 67.0625 60.0938 66.6875 59.0938C66.3125 58.0312 65.7188 57.125 64.9062 56.375C64.1562 55.5625 63.1875 55.125 62 55.0625H29C27.375 55.125 26.5625 55.9375 26.5625 57.5V92.8438ZM90.7812 91.3438C90.7812 89.5938 91.4062 88.125 92.6562 86.9375C93.8438 85.6875 95.3125 85.0625 97.0625 85.0625H135.5C136.688 85 137.656 84.7188 138.406 84.2188C139.219 83.7188 139.812 83.1562 140.188 82.5312C140.562 81.9062 140.75 81.25 140.75 80.5625C140.75 79.875 140.562 79.2188 140.188 78.5938C139.812 77.9688 139.219 77.4062 138.406 76.9062C137.656 76.4062 136.688 76.125 135.5 76.0625H108.875C104.5 75.9375 100.875 74.9375 98 73.0625C95.1875 71.125 93.1562 68.9375 91.9062 66.5C90.7188 64 90.125 61.4688 90.125 58.9062V52.4375C90.1875 49.25 91.125 46.8125 92.9375 45.125C94.8125 43.375 97.5 42.5 101 42.5H146.938C148.688 42.5 150.156 43.125 151.344 44.375C152.594 45.5625 153.219 47.0312 153.219 48.7812C153.219 50.5312 152.594 52 151.344 53.1875C150.156 54.4375 148.688 55.0625 146.938 55.0625H106.062C104.875 55 104.062 55.1875 103.625 55.625C103.25 56.0625 103.062 56.6875 103.062 57.5V58.9062C103.062 59.3438 103.25 59.9688 103.625 60.7812C104 61.5312 104.562 62.1562 105.312 62.6562C106.125 63.1562 107.125 63.4375 108.312 63.5H134.938C139.312 63.5625 142.906 64.5625 145.719 66.5C148.594 68.375 150.625 70.5625 151.812 73.0625C153.062 75.5 153.688 78 153.688 80.5625C153.688 83 153.062 85.4688 151.812 87.9688C150.562 90.4062 148.531 92.5938 145.719 94.5312C142.906 96.4062 139.312 97.4062 134.938 97.5312H134.375C134 97.5938 133.625 97.625 133.25 97.625H97.0625C95.3125 97.625 93.8125 97.0312 92.5625 95.8438C91.375 94.5938 90.7812 93.0938 90.7812 91.3438Z" fill="black"/>
<path d="M26.5625 92.8438L28.5526 93.0428L28.5625 92.9435V92.8438H26.5625ZM20.375 98.9375V100.938H20.4582L20.5411 100.931L20.375 98.9375ZM15.7812 97.25L14.4038 98.7L14.4408 98.7352L14.4797 98.7685L15.7812 97.25ZM13.9062 48.5938L11.9075 48.5224L11.9062 48.558V48.5938H13.9062ZM15.875 44.2812L17.2129 45.7678L17.233 45.7498L17.2525 45.7312L15.875 44.2812ZM59.75 42.5L59.8181 40.5012L59.7841 40.5H59.75V42.5ZM72.2188 46.1562L70.9694 47.718L70.9801 47.7265L70.9909 47.735L72.2188 46.1562ZM78.3125 70.9062L76.4849 70.094L76.4773 70.1111L76.47 70.1283L78.3125 70.9062ZM72.2188 78.5L73.4466 80.0787L73.4514 80.075L72.2188 78.5ZM61.4375 81.6875L61.4661 79.6877L61.4518 79.6875H61.4375V81.6875ZM33.4062 79.8125L34.8562 78.435L34.8209 78.3978L34.7837 78.3625L33.4062 79.8125ZM66.6875 65.2812L68.5602 65.9835L68.567 65.9653L68.5735 65.9469L66.6875 65.2812ZM66.6875 59.0938L64.8015 59.7594L64.808 59.7778L64.8148 59.796L66.6875 59.0938ZM64.9062 56.375L63.4366 57.7316L63.4909 57.7903L63.5497 57.8446L64.9062 56.375ZM62 55.0625L62.1051 53.0653L62.0526 53.0625H62V55.0625ZM29 55.0625V53.0625H28.9616L28.9231 53.064L29 55.0625ZM26.5625 92.8438L24.5724 92.6447C24.4172 94.1974 23.9402 95.1547 23.331 95.7547C22.7221 96.3544 21.7597 96.8152 20.2089 96.9444L20.375 98.9375L20.5411 100.931C22.7403 100.747 24.6841 100.036 26.1378 98.6047C27.591 97.1734 28.3328 95.2401 28.5526 93.0428L26.5625 92.8438ZM20.375 98.9375V96.9375C19.096 96.9375 18.028 96.5416 17.0828 95.7315L15.7812 97.25L14.4797 98.7685C16.1595 100.208 18.154 100.938 20.375 100.938V98.9375ZM15.7812 97.25L17.1587 95.8C16.3129 94.9965 15.9062 94.0548 15.9062 92.8438H13.9062H11.9062C11.9062 95.1327 12.7496 97.1285 14.4038 98.7L15.7812 97.25ZM13.9062 92.8438H15.9062V48.5938H13.9062H11.9062V92.8438H13.9062ZM13.9062 48.5938L15.905 48.6651C15.949 47.4319 16.3842 46.5137 17.2129 45.7678L15.875 44.2812L14.5371 42.7947C12.8658 44.2988 11.9885 46.2556 11.9075 48.5224L13.9062 48.5938ZM15.875 44.2812L17.2525 45.7312C18.1246 44.9027 19.1291 44.5 20.375 44.5V42.5V40.5C18.1209 40.5 16.1254 41.2848 14.4975 42.8313L15.875 44.2812ZM20.375 42.5V44.5H59.75V42.5V40.5H20.375V42.5ZM59.75 42.5L59.6819 44.4988C64.9656 44.679 68.6291 45.8458 70.9694 47.718L72.2188 46.1562L73.4681 44.5945C70.1834 41.9667 65.5344 40.696 59.8181 40.5012L59.75 42.5ZM72.2188 46.1562L70.9909 47.735C73.5846 49.7523 75.3884 52.0013 76.4849 54.4685L78.3125 53.6562L80.1401 52.844C78.7366 49.6862 76.4779 46.9352 73.4466 44.5775L72.2188 46.1562ZM78.3125 53.6562L76.4849 54.4685C77.6294 57.0436 78.1875 59.6117 78.1875 62.1875H80.1875H82.1875C82.1875 59.0133 81.4956 55.8939 80.1401 52.844L78.3125 53.6562ZM80.1875 62.1875H78.1875C78.1875 64.9003 77.6243 67.5304 76.4849 70.094L78.3125 70.9062L80.1401 71.7185C81.5007 68.6571 82.1875 65.4747 82.1875 62.1875H80.1875ZM78.3125 70.9062L76.47 70.1283C75.4384 72.5716 73.6458 74.8435 70.9861 76.925L72.2188 78.5L73.4514 80.075C76.5417 77.6565 78.8116 74.8659 80.155 71.6842L78.3125 70.9062ZM72.2188 78.5L70.9909 76.9213C68.6132 78.7706 65.4932 79.7452 61.4661 79.6877L61.4375 81.6875L61.4089 83.6873C66.1318 83.7548 70.1993 82.6044 73.4466 80.0787L72.2188 78.5ZM61.4375 81.6875V79.6875H37.8125V81.6875V83.6875H61.4375V81.6875ZM37.8125 81.6875V79.6875C36.6014 79.6875 35.6598 79.2808 34.8562 78.435L33.4062 79.8125L31.9563 81.19C33.5277 82.8442 35.5236 83.6875 37.8125 83.6875V81.6875ZM33.4062 79.8125L34.7837 78.3625C33.9379 77.559 33.5312 76.6173 33.5312 75.4062H31.5312H29.5312C29.5312 77.6952 30.3746 79.691 32.0288 81.2625L33.4062 79.8125ZM31.5312 75.4062H33.5312C33.5312 74.1618 33.9315 73.2094 34.7267 72.4142L33.3125 71L31.8983 69.5858C30.3185 71.1656 29.5312 73.1507 29.5312 75.4062H31.5312ZM33.3125 71L34.7267 72.4142C35.6059 71.535 36.599 71.125 37.8125 71.125V69.125V67.125C35.526 67.125 33.5191 67.965 31.8983 69.5858L33.3125 71ZM37.8125 69.125V71.125H62V69.125V67.125H37.8125V69.125ZM62 69.125V71.125C63.6486 71.125 65.1491 70.5856 66.3205 69.4142L64.9062 68L63.492 66.5858C63.1634 66.9144 62.7264 67.125 62 67.125V69.125ZM64.9062 68L66.3205 69.4142C67.3193 68.4154 68.0775 67.2707 68.5602 65.9835L66.6875 65.2812L64.8148 64.579C64.5475 65.2918 64.1182 65.9596 63.492 66.5858L64.9062 68ZM66.6875 65.2812L68.5735 65.9469C69.0194 64.6836 69.25 63.3964 69.25 62.0938H67.25H65.25C65.25 62.9161 65.1056 63.7539 64.8015 64.6156L66.6875 65.2812ZM67.25 62.0938H69.25C69.25 60.838 69.0136 59.6007 68.5602 58.3915L66.6875 59.0938L64.8148 59.796C65.1114 60.5868 65.25 61.3495 65.25 62.0938H67.25ZM66.6875 59.0938L68.5735 58.4281C68.0922 57.0646 67.3193 55.8806 66.2628 54.9054L64.9062 56.375L63.5497 57.8446C64.1182 58.3694 64.5328 58.9979 64.8015 59.7594L66.6875 59.0938ZM64.9062 56.375L66.3759 55.0184C65.2436 53.7919 63.7703 53.1529 62.1051 53.0653L62 55.0625L61.8949 57.0597C62.6047 57.0971 63.0689 57.3331 63.4366 57.7316L64.9062 56.375ZM62 55.0625V53.0625H29V55.0625V57.0625H62V55.0625ZM29 55.0625L28.9231 53.064C27.8161 53.1066 26.6446 53.4176 25.7577 54.3045C24.8575 55.2047 24.5625 56.3841 24.5625 57.5H26.5625H28.5625C28.5625 57.2779 28.5919 57.1607 28.6072 57.1161C28.6192 57.0809 28.6181 57.1009 28.5861 57.133C28.5116 57.2074 28.5589 57.0809 29.0769 57.061L29 55.0625ZM26.5625 57.5H24.5625V92.8438H26.5625H28.5625V57.5H26.5625ZM92.6562 86.9375L94.0337 88.3875L94.0709 88.3522L94.1062 88.315L92.6562 86.9375ZM135.5 85.0625V87.0625H135.553L135.605 87.0597L135.5 85.0625ZM138.406 84.2188L137.358 82.5154L137.327 82.5345L137.297 82.5546L138.406 84.2188ZM138.406 76.9062L137.297 78.5704L137.327 78.5905L137.358 78.6096L138.406 76.9062ZM135.5 76.0625L135.605 74.0653L135.553 74.0625H135.5V76.0625ZM108.875 76.0625L108.818 78.0617L108.846 78.0625H108.875V76.0625ZM98 73.0625L96.8654 74.7095L96.8862 74.7239L96.9075 74.7377L98 73.0625ZM91.9062 66.5L90.0997 67.3581L90.1127 67.3856L90.1266 67.4126L91.9062 66.5ZM90.125 52.4375L88.1254 52.3983L88.125 52.4179V52.4375H90.125ZM92.9375 45.125L94.3003 46.5888L94.3021 46.5871L92.9375 45.125ZM151.344 44.375L149.894 45.7525L149.929 45.7897L149.966 45.825L151.344 44.375ZM151.344 53.1875L149.966 51.7375L149.929 51.7728L149.894 51.81L151.344 53.1875ZM106.062 55.0625L105.957 57.0597L106.01 57.0625H106.062V55.0625ZM103.625 55.625L102.211 54.2108L102.156 54.2651L102.106 54.3234L103.625 55.625ZM103.625 60.7812L101.809 61.6194L101.822 61.6477L101.836 61.6757L103.625 60.7812ZM105.312 62.6562L104.203 64.3204L104.233 64.3405L104.264 64.3596L105.312 62.6562ZM108.312 63.5L108.207 65.4972L108.26 65.5H108.312V63.5ZM134.938 63.5L134.966 61.5002L134.952 61.5H134.938V63.5ZM145.719 66.5L144.584 68.147L144.605 68.1614L144.626 68.1752L145.719 66.5ZM151.812 73.0625L150.006 73.9206L150.019 73.9481L150.033 73.9751L151.812 73.0625ZM151.812 87.9688L153.592 88.8814L153.597 88.8723L153.601 88.8632L151.812 87.9688ZM145.719 94.5312L146.828 96.1954L146.841 96.1869L146.853 96.1783L145.719 94.5312ZM134.938 97.5312V99.5312H134.966L134.995 99.5304L134.938 97.5312ZM134.375 97.5312V95.5312H134.209L134.046 95.5585L134.375 97.5312ZM92.5625 95.8438L91.1125 97.2212L91.1478 97.2584L91.185 97.2937L92.5625 95.8438ZM90.7812 91.3438H92.7812C92.7812 90.1327 93.1879 89.191 94.0337 88.3875L92.6562 86.9375L91.2788 85.4875C89.6246 87.059 88.7812 89.0548 88.7812 91.3438H90.7812ZM92.6562 86.9375L94.1062 88.315C94.9098 87.4692 95.8514 87.0625 97.0625 87.0625V85.0625V83.0625C94.7736 83.0625 92.7777 83.9058 91.2063 85.56L92.6562 86.9375ZM97.0625 85.0625V87.0625H135.5V85.0625V83.0625H97.0625V85.0625ZM135.5 85.0625L135.605 87.0597C137.04 86.9842 138.386 86.6359 139.516 85.8829L138.406 84.2188L137.297 82.5546C136.926 82.8016 136.335 83.0158 135.395 83.0653L135.5 85.0625ZM138.406 84.2188L139.454 85.9221C140.459 85.3041 141.319 84.5319 141.902 83.5602L140.188 82.5312L138.473 81.5023C138.306 81.7806 137.979 82.1334 137.358 82.5154L138.406 84.2188ZM140.188 82.5312L141.902 83.5602C142.452 82.6439 142.75 81.6345 142.75 80.5625H140.75H138.75C138.75 80.8655 138.673 81.1686 138.473 81.5023L140.188 82.5312ZM140.75 80.5625H142.75C142.75 79.4905 142.452 78.4811 141.902 77.5648L140.188 78.5938L138.473 79.6227C138.673 79.9564 138.75 80.2595 138.75 80.5625H140.75ZM140.188 78.5938L141.902 77.5648C141.319 76.5931 140.459 75.8209 139.454 75.2029L138.406 76.9062L137.358 78.6096C137.979 78.9916 138.306 79.3444 138.473 79.6227L140.188 78.5938ZM138.406 76.9062L139.516 75.2421C138.386 74.4891 137.04 74.1408 135.605 74.0653L135.5 76.0625L135.395 78.0597C136.335 78.1092 136.926 78.3234 137.297 78.5704L138.406 76.9062ZM135.5 76.0625V74.0625H108.875V76.0625V78.0625H135.5V76.0625ZM108.875 76.0625L108.932 74.0633C104.825 73.946 101.585 73.0125 99.0925 71.3873L98 73.0625L96.9075 74.7377C100.165 76.8625 104.175 77.929 108.818 78.0617L108.875 76.0625ZM98 73.0625L99.1346 71.4155C96.5285 69.6201 94.7521 67.6665 93.6859 65.5874L91.9062 66.5L90.1266 67.4126C91.5604 70.2085 93.8465 72.6299 96.8654 74.7095L98 73.0625ZM91.9062 66.5L93.7128 65.6419C92.6423 63.3882 92.125 61.1486 92.125 58.9062H90.125H88.125C88.125 61.7889 88.7952 64.6118 90.0997 67.3581L91.9062 66.5ZM90.125 58.9062H92.125V52.4375H90.125H88.125V58.9062H90.125ZM90.125 52.4375L92.1246 52.4767C92.1797 49.6671 92.9898 47.8089 94.3003 46.5888L92.9375 45.125L91.5747 43.6612C89.2602 45.8161 88.1953 48.8329 88.1254 52.3983L90.125 52.4375ZM92.9375 45.125L94.3021 46.5871C95.6895 45.2923 97.8193 44.5 101 44.5V42.5V40.5C97.1807 40.5 93.9355 41.4577 91.5729 43.6629L92.9375 45.125ZM101 42.5V44.5H146.938V42.5V40.5H101V42.5ZM146.938 42.5V44.5C148.149 44.5 149.09 44.9067 149.894 45.7525L151.344 44.375L152.794 42.9975C151.222 41.3433 149.226 40.5 146.938 40.5V42.5ZM151.344 44.375L149.966 45.825C150.812 46.6285 151.219 47.5702 151.219 48.7812H153.219H155.219C155.219 46.4923 154.375 44.4965 152.721 42.925L151.344 44.375ZM153.219 48.7812H151.219C151.219 49.9923 150.812 50.934 149.966 51.7375L151.344 53.1875L152.721 54.6375C154.375 53.066 155.219 51.0702 155.219 48.7812H153.219ZM151.344 53.1875L149.894 51.81C149.09 52.6558 148.149 53.0625 146.938 53.0625V55.0625V57.0625C149.226 57.0625 151.222 56.2192 152.794 54.565L151.344 53.1875ZM146.938 55.0625V53.0625H106.062V55.0625V57.0625H146.938V55.0625ZM106.062 55.0625L106.168 53.0653C104.883 52.9977 103.291 53.1302 102.211 54.2108L103.625 55.625L105.039 57.0392C104.916 57.1626 104.848 57.1429 105.012 57.105C105.178 57.0669 105.478 57.0345 105.957 57.0597L106.062 55.0625ZM103.625 55.625L102.106 54.3234C101.314 55.2475 101.062 56.4039 101.062 57.5H103.062H105.062C105.062 56.9711 105.186 56.8775 105.144 56.9266L103.625 55.625ZM103.062 57.5H101.062V58.9062H103.062H105.062V57.5H103.062ZM103.062 58.9062H101.062C101.062 59.8032 101.414 60.7624 101.809 61.6194L103.625 60.7812L105.441 59.9431C105.279 59.5933 105.178 59.3248 105.119 59.1284C105.056 58.9203 105.062 58.86 105.062 58.9062H103.062ZM103.625 60.7812L101.836 61.6757C102.378 62.7602 103.186 63.6422 104.203 64.3204L105.312 62.6562L106.422 60.9921C105.939 60.6703 105.622 60.3023 105.414 59.8868L103.625 60.7812ZM105.312 62.6562L104.264 64.3596C105.424 65.0729 106.767 65.4214 108.207 65.4972L108.312 63.5L108.418 61.5028C107.483 61.4536 106.826 61.2396 106.361 60.9529L105.312 62.6562ZM108.312 63.5V65.5H134.938V63.5V61.5H108.312V63.5ZM134.938 63.5L134.909 65.4998C138.999 65.5582 142.178 66.4893 144.584 68.147L145.719 66.5L146.853 64.853C143.635 62.6357 139.626 61.5668 134.966 61.5002L134.938 63.5ZM145.719 66.5L144.626 68.1752C147.266 69.897 149.011 71.8251 150.006 73.9206L151.812 73.0625L153.619 72.2044C152.239 69.2999 149.921 66.853 146.811 64.8248L145.719 66.5ZM151.812 73.0625L150.033 73.9751C151.148 76.1502 151.688 78.3391 151.688 80.5625H153.688H155.688C155.688 77.6609 154.977 74.8498 153.592 72.1499L151.812 73.0625ZM153.688 80.5625H151.688C151.688 82.6468 151.155 84.8112 150.024 87.0743L151.812 87.9688L153.601 88.8632C154.97 86.1263 155.688 83.3532 155.688 80.5625H153.688ZM151.812 87.9688L150.033 87.0561C148.967 89.1353 147.19 91.0889 144.584 92.8842L145.719 94.5312L146.853 96.1783C149.872 94.0986 152.158 91.6772 153.592 88.8814L151.812 87.9688ZM145.719 94.5312L144.609 92.8671C142.189 94.4808 138.989 95.4147 134.88 95.5321L134.938 97.5312L134.995 99.5304C139.636 99.3978 143.624 98.3317 146.828 96.1954L145.719 94.5312ZM134.938 97.5312V95.5312H134.375V97.5312V99.5312H134.938V97.5312ZM134.375 97.5312L134.046 95.5585C133.778 95.6031 133.513 95.625 133.25 95.625V97.625V99.625C133.737 99.625 134.222 99.5844 134.704 99.504L134.375 97.5312ZM133.25 97.625V95.625H97.0625V97.625V99.625H133.25V97.625ZM97.0625 97.625V95.625C95.8166 95.625 94.8121 95.2223 93.94 94.3938L92.5625 95.8438L91.185 97.2937C92.8129 98.8402 94.8084 99.625 97.0625 99.625V97.625ZM92.5625 95.8438L94.0125 94.4663C93.184 93.5941 92.7812 92.5896 92.7812 91.3438H90.7812H88.7812C88.7812 93.5979 89.566 95.5934 91.1125 97.2212L92.5625 95.8438Z" fill="white" mask="url(#path-1-outside-1_1_3)"/>
</g>
<path d="M29 124H153" stroke="white" stroke-width="10" stroke-linecap="round"/>
<path d="M24 120H148" stroke="black" stroke-width="10" stroke-linecap="round"/>
<defs>
<filter id="filter0_d_1_3" x="11.9062" y="40.5" width="150.781" height="67.4375" filterUnits="userSpaceOnUse" color-interpolation-filters="sRGB">
<feFlood flood-opacity="0" result="BackgroundImageFix"/>
<feColorMatrix in="SourceAlpha" type="matrix" values="0 0 0 0 0 0 0 0 0 0 0 0 0 0 0 0 0 0 127 0" result="hardAlpha"/>
<feOffset dx="7" dy="7"/>
<feComposite in2="hardAlpha" operator="out"/>
<feColorMatrix type="matrix" values="0 0 0 0 1 0 0 0 0 1 0 0 0 0 1 0 0 0 1 0"/>
<feBlend mode="normal" in2="BackgroundImageFix" result="effect1_dropShadow_1_3"/>
<feBlend mode="normal" in="SourceGraphic" in2="effect1_dropShadow_1_3" result="shape"/>
</filter>
</defs>
</svg>
